<svg xmlns="http://www.w3.org/2000/svg" width="48" height="44" viewBox="0 0 48 44"><path d="M17.774,19.065,19.884,4.627H8.913L4.329,17a4.462,4.462,0,0,0-.216,1.375c0,3.036,3.067,5.5,6.856,5.5,3.493,0,6.381-2.1,6.805-4.813Zm10.339,4.813c3.787,0,6.856-2.464,6.856-5.5,0-.113-.008-.225-.013-.333L33.6,4.627H22.628l-1.36,13.406c-.005.113-.011.225-.011.344,0,3.036,3.069,5.5,6.856,5.5Zm13.333,2.876V37.627H14.78V26.77a10.916,10.916,0,0,1-3.811.682,10.67,10.67,0,0,1-1.523-.135v17.46a3.8,3.8,0,0,0,3.728,3.85H43.046a3.806,3.806,0,0,0,3.733-3.85V27.32a11.119,11.119,0,0,1-1.523.135A10.783,10.783,0,0,1,41.446,26.754ZM51.9,17,47.31,4.627H36.342l2.107,14.415c.411,2.722,3.3,4.835,6.808,4.835,3.787,0,6.856-2.464,6.856-5.5A4.543,4.543,0,0,0,51.9,17Z" transform="translate(-4.113 -4.627)" fill="#333"/></svg>