<svg xmlns="http://www.w3.org/2000/svg" width="48" height="57.6" viewBox="0 0 48 57.6"><g transform="translate(-4.696 0)"><g transform="translate(4.696 0)"><path d="M36.1.357,12.779,9.066c-3.572,1.015-5.964,2.861-5.964,4.971,0,3.2,5.5,5.8,12.3,5.8,5.36,0,9.918-1.619,11.6-3.876l10.023-5.041V9.55l4.174-1.733h2.706l4.632-1.95L41.431.608A7.753,7.753,0,0,0,36.1.357Z" transform="translate(-4.932 0)" fill="#333"/><g transform="translate(0 6.488)"><path d="M19.093,23.557a25.081,25.081,0,0,1-3.435-.256v9a24.626,24.626,0,0,0,3.435.262Z" transform="translate(-5.378 -7.747)" fill="#333"/><path d="M23.792,34.235a25.913,25.913,0,0,1-3.433.28V43.7a23.36,23.36,0,0,0,3.433-.387Z" transform="translate(-5.671 -8.041)" fill="#333"/><path d="M23.792,23.231a24.782,24.782,0,0,1-3.433.31v9.006a24.645,24.645,0,0,0,3.433-.29Z" transform="translate(-5.671 -7.744)" fill="#333"/><path d="M14.393,23.045a18.677,18.677,0,0,1-3.434-.939v8.96a18.563,18.563,0,0,0,3.434.974Z" transform="translate(-5.393 -7.692)" fill="#333"/><path d="M14.393,34.026a19.662,19.662,0,0,1-3.434-.921v9.366a19.419,19.419,0,0,0,3.434.847Z" transform="translate(-5.393 -7.967)" fill="#333"/><path d="M18.813,43.726c.1,0,.186,0,.281-.005v-9.2a25.687,25.687,0,0,1-3.435-.251v9.276a24.981,24.981,0,0,0,3.016.177Z" transform="translate(-5.378 -8.043)" fill="#333"/><path d="M28.493,32.992a18.334,18.334,0,0,1-3.434.979v9.041a16.356,16.356,0,0,0,3.434-1.189Z" transform="translate(-5.963 -7.975)" fill="#333"/><path d="M9.713,21.448A8.308,8.308,0,0,1,6.434,19v9.333a12.977,12.977,0,0,0,3.279,2.074Z" transform="translate(-4.889 -7.569)" fill="#333"/><path d="M9.713,32.531a14.108,14.108,0,0,1-3.279-1.922v9.486a14.238,14.238,0,0,0,3.279,1.821Z" transform="translate(-4.889 -7.842)" fill="#333"/><path d="M28.493,21.933a17.867,17.867,0,0,1-3.434,1.022v9.026a17.434,17.434,0,0,0,3.434-1.035Z" transform="translate(-5.963 -7.684)" fill="#333"/><path d="M44.561,9.829l-2.993,1.331v1.6L31.162,18.481a8.423,8.423,0,0,1-3.056,2.44v9.692a11.384,11.384,0,0,0,3.056-2.174v1.1a12.886,12.886,0,0,1-3.056,1.974v9.423a9.161,9.161,0,0,0,2.849-2.358.384.384,0,0,1,.208-.149v1.134a11.422,11.422,0,0,1-3.056,2.3V53.418a.39.39,0,1,1-.78,0V42.254a18.016,18.016,0,0,1-3.609,1.206V54.418a.39.39,0,1,1-.78,0v-10.8a25.026,25.026,0,0,1-3.608.4V54.668a.39.39,0,1,1-.78,0V44.039c-.1,0-.192,0-.291.007H18.1a26.961,26.961,0,0,1-3.167-.182V54.417a.39.39,0,1,1-.78,0V43.76a21.344,21.344,0,0,1-3.609-.858V53.418a.391.391,0,1,1-.781,0v-10.8A15.777,15.777,0,0,1,6.322,40.79V48.6A3.122,3.122,0,0,0,4.7,51.011v2.276c0,2.831,6.217,5.125,13.886,5.125s13.885-2.294,13.885-5.125V51.011a2.382,2.382,0,0,0-.662-1.559l8.775-4.239a1.766,1.766,0,0,0,1.059-1.238v-.727l2.732-1.209h2.146a4.885,4.885,0,0,0,2.176-.615l3-1.832A2.349,2.349,0,0,0,52.7,37.78V7.3L47.363,9.83ZM40.349,35.6l-7.886,4.259V37.343l7.886-4.192Zm0-4.5-7.886,4.26V32.839l7.886-4.192Zm0-4.5-7.886,4.259V28.337l7.886-4.192Zm0-4.5-7.886,4.259V23.834l7.886-4.192Zm0-4.5-7.886,4.259V19.329l7.886-4.192ZM51.195,29.7,47.456,31.66h-2.21V29.531h2.081l3.87-2.1,0,2.263Zm0-4.393-3.739,1.962h-2.21v-2.13h2.081l3.87-2.1,0,2.262Zm0-4.394-3.739,1.963h-2.21v-2.13h2.081l3.87-2.1,0,2.262Zm0-4.394-3.739,1.964h-2.21v-2.13h2.081l3.87-2.1,0,2.262Zm0-4.392-3.739,1.962h-2.21v-2.13h2.081l3.87-2.1,0,2.264Z" transform="translate(-4.696 -7.3)" fill="#333"/></g></g></g></svg>