<svg xmlns="http://www.w3.org/2000/svg" width="18" height="24" viewBox="0 0 18 24"><g transform="translate(0)"><ellipse cx="5.055" cy="5.055" rx="5.055" ry="5.055" transform="translate(2.022)" fill="#0bb300"/><path d="M25.721,50.284a4.62,4.62,0,0,1,1.188-5.411,3.958,3.958,0,0,1,2.537-.9,5.422,5.422,0,0,1,2.687.788,5.858,5.858,0,0,1,2.022-.738v-.986A3.036,3.036,0,0,0,31.122,40H23.033A3.036,3.036,0,0,0,20,43.033v8.089a1.011,1.011,0,0,0,1.011,1.011H27.2A6.808,6.808,0,0,1,25.721,50.284Z" transform="translate(-20 -30.155)" fill="#0bb300"/><path d="M55.366,60.369c-.573-.478-2.136-1.369-4.577.3-2.441-1.67-4-.779-4.577-.3a3.625,3.625,0,0,0-.93,4.182c1.062,2.123,5.108,4.183,5.28,4.269a.506.506,0,0,0,.455,0c.172-.087,4.218-2.146,5.28-4.269A3.623,3.623,0,0,0,55.366,60.369ZM53.822,63.82a1.011,1.011,0,1,1,1.011-1.011A1.011,1.011,0,0,1,53.822,63.82Z" transform="translate(-38.611 -44.875)" fill="#0bb300"/></g></svg>